<svg width="32" height="36" viewBox="0 0 32 36" fill="none" xmlns="http://www.w3.org/2000/svg">
<path d="M20.4444 0.5C22.7611 0.5 24.6611 2.98438 24.8722 6.16406L29.6278 8.21875C31.0389 8.82812 32.0056 10.6641 32.0056 12.7422C32.0056 14.4453 31.3556 16.0156 30.3 16.8594L22.2667 23.2734L27.4056 30.5H30.2222C31.2056 30.5 32 31.6172 32 33C32 34.3828 31.2056 35.5 30.2222 35.5H26.6667C26.1944 35.5 25.7444 35.2344 25.4111 34.7656L19.2722 26.1406C19.9222 23.3281 19.45 20.1172 17.8611 17.8828C15.6056 14.7109 11.9556 14.7109 9.7 17.875L5.61111 23.3438C5.25556 23.8203 5.23889 24.6094 5.57778 25.1094C5.91667 25.6094 6.47778 25.625 6.83333 25.1562L10.9333 19.6719L10.9389 19.6641L10.9444 19.6562C11.1389 19.3828 11.35 19.1406 11.5722 18.9375C13.1222 17.4922 15.2333 17.7344 16.6 19.6562C17.9722 21.5859 18.1389 24.5703 17.1 26.7578C16.9556 27.0547 16.7889 27.3438 16.6 27.6094L14.5444 30.5H19.5556C20.5389 30.5 21.3333 31.6172 21.3333 33C21.3333 34.3828 20.5389 35.5 19.5556 35.5H3.55556C1.59444 35.5 0 33.2578 0 30.5C0 17.5 7.05555 6.82031 16.0722 5.61719C16.4556 2.70312 18.2667 0.5 20.4444 0.5ZM20.4444 8.625C21.1833 8.625 21.7778 7.78906 21.7778 6.75C21.7778 5.71094 21.1833 4.875 20.4444 4.875C19.7056 4.875 19.1111 5.71094 19.1111 6.75C19.1111 7.78906 19.7056 8.625 20.4444 8.625Z" fill="black"/>
</svg>
