<svg width="31" height="36" viewBox="0 0 31 36" fill="none" xmlns="http://www.w3.org/2000/svg">
<path d="M19.8056 0.5C22.0498 0.5 23.8905 2.98438 24.095 6.16406L28.7019 8.21875C30.0689 8.82812 31.0054 10.6641 31.0054 12.7422C31.0054 14.4453 30.3757 16.0156 29.3531 16.8594L21.5708 23.2734L26.5491 30.5H29.2778C30.2304 30.5 31 31.6172 31 33C31 34.3828 30.2304 35.5 29.2778 35.5H25.8333C25.3759 35.5 24.9399 35.2344 24.617 34.7656L18.67 26.1406C19.2997 23.3281 18.8422 20.1172 17.303 17.8828C15.1179 14.7109 11.5819 14.7109 9.39688 17.875L5.43576 23.3438C5.09132 23.8203 5.07517 24.6094 5.40347 25.1094C5.73177 25.6094 6.27535 25.625 6.61979 25.1562L10.5917 19.6719L10.597 19.6641L10.6024 19.6562C10.7908 19.3828 10.9953 19.1406 11.2106 18.9375C12.7122 17.4922 14.7573 17.7344 16.0813 19.6562C17.4106 21.5859 17.572 24.5703 16.5656 26.7578C16.4257 27.0547 16.2642 27.3438 16.0813 27.6094L14.0899 30.5H18.9444C19.897 30.5 20.6667 31.6172 20.6667 33C20.6667 34.3828 19.897 35.5 18.9444 35.5H3.44444C1.54462 35.5 0 33.2578 0 30.5C0 17.5 6.83507 6.82031 15.57 5.61719C15.9413 2.70312 17.6958 0.5 19.8056 0.5ZM19.8056 8.625C20.5214 8.625 21.0972 7.78906 21.0972 6.75C21.0972 5.71094 20.5214 4.875 19.8056 4.875C19.0898 4.875 18.5139 5.71094 18.5139 6.75C18.5139 7.78906 19.0898 8.625 19.8056 8.625Z" fill="white"/>
</svg>
